HIERARCHY
ROOT Hips
{
    OFFSET 0.000000 0.000000 0.000000
    CHANNELS 6 Xposition Yposition Zposition Zrotation Xrotation Yrotation
    JOINT Spine
    {
        OFFSET -0.000000 7.856138 0.000000
        CHANNELS 3 Zrotation Xrotation Yrotation
        JOINT Spine1
        {
            OFFSET -0.000000 20.830866 0.000000
            CHANNELS 3 Zrotation Xrotation Yrotation
            JOINT Neck
            {
                OFFSET -0.000000 20.745317 1.885938
                CHANNELS 3 Zrotation Xrotation Yrotation
                JOINT Head
                {
                    OFFSET -0.000000 13.412918 -1.916131
                    CHANNELS 3 Zrotation Xrotation Yrotation
                    End Site
                    {
                        OFFSET -0.000000 23.951641 0.000000
                    }
                }
            }
            JOINT LeftShoulder
            {
                OFFSET 3.826675 19.078362 -0.073511
                CHANNELS 3 Zrotation Xrotation Yrotation
                JOINT LeftArm
                {
                    OFFSET 10.442133 0.000000 0.000000
                    CHANNELS 3 Zrotation Xrotation Yrotation
                    JOINT LeftForeArm
                    {
                        OFFSET 37.051945 0.000000 0.000000
                        CHANNELS 3 Zrotation Xrotation Yrotation
                        JOINT LeftHand
                        {
                            OFFSET 24.394852 0.000000 0.000000
                            CHANNELS 3 Zrotation Xrotation Yrotation
                            End Site
                            {
                                OFFSET 14.370985 0.000000 0.000000
                            }
                        }
                    }
                }
            }
            JOINT RightShoulder
            {
                OFFSET -3.827599 19.078362 -0.073511
                CHANNELS 3 Zrotation Xrotation Yrotation
                JOINT RightArm
                {
                    OFFSET -10.442133 0.000000 0.000000
                    CHANNELS 3 Zrotation Xrotation Yrotation
                    JOINT RightForeArm
                    {
                        OFFSET -37.051945 0.000000 0.000000
                        CHANNELS 3 Zrotation Xrotation Yrotation
                        JOINT RightHand
                        {
                            OFFSET -24.394852 0.000000 0.000000
                            CHANNELS 3 Zrotation Xrotation Yrotation
                            End Site
                            {
                                OFFSET -14.370985 0.000000 0.000000
                            }
                        }
                    }
                }
            }
        }
    }
    JOINT LeftUpLeg
    {
        OFFSET 9.580656 0.000000 0.000000
        CHANNELS 3 Zrotation Xrotation Yrotation
        JOINT LeftLeg
        {
            OFFSET -0.000000 -43.769192 0.000000
            CHANNELS 3 Zrotation Xrotation Yrotation
            JOINT LeftFoot
            {
                OFFSET -0.000000 -42.531967 0.000000
                CHANNELS 3 Zrotation Xrotation Yrotation
                JOINT LeftToeBase
                {
                    OFFSET -0.000000 -6.227426 14.370985
                    CHANNELS 3 Zrotation Xrotation Yrotation
                    End Site
                    {
                        OFFSET -0.000000 0.000000 3.832262
                    }
                }
            }
        }
    }
    JOINT RightUpLeg
    {
        OFFSET -9.580656 0.000000 0.000000
        CHANNELS 3 Zrotation Xrotation Yrotation
        JOINT RightLeg
        {
            OFFSET -0.000000 -43.769192 0.000000
            CHANNELS 3 Zrotation Xrotation Yrotation
            JOINT RightFoot
            {
                OFFSET -0.000000 -42.531967 0.000000
                CHANNELS 3 Zrotation Xrotation Yrotation
                JOINT RightToeBase
                {
                    OFFSET -0.000000 -6.227426 14.370985
                    CHANNELS 3 Zrotation Xrotation Yrotation
                    End Site
                    {
                        OFFSET -0.000000 0.000000 3.832262
                    }
                }
            }
        }
    }
}
MOTION
Frames:    4
Frame Time:    0.008333
-19.635906    93.312279    34.052307    -1.855539    -1.280787    90.312576    -0.077700    -6.006674    1.043884    4.723661    -0.439166    1.066123    -4.100059    7.785177    -5.557849    10.848428    0.028454    -3.916922    9.348898    -0.738514    7.761322    -14.566616    4.965605    -12.477226    2.512252    1.640844    1.273543    18.661329    1.894005    1.711426    -18.540819    2.844617    -1.910330    20.447439    3.557607    2.695914    -2.139083    2.423210    -2.390115    -10.902716    2.991612    -6.423554    3.251104    5.448369    -2.656335    -3.925283    -4.297456    3.195819    2.029819    -5.291312    8.537101    0.000000    0.000000    0.000000    0.314690    1.462268    0.225149    2.588520    0.029552    -10.204758    1.249437    -4.663568    2.429775    0.000000    0.000000    0.000000    
-19.632404    93.307411    34.063011    -1.858932    -1.283226    90.327080    -0.124112    -6.028862    1.018198    4.790287    -0.388834    1.041059    -4.148782    7.802365    -5.585888    10.906756    -0.008846    -3.931143    9.273919    -0.710089    7.758774    -14.580614    4.996469    -12.383041    2.487920    1.781402    1.333412    18.055037    1.999753    1.557353    -18.555729    2.900510    -1.934209    20.490086    3.468631    2.646662    -2.099304    2.533589    -2.454119    -10.569298    3.077478    -6.366737    3.259575    5.438388    -2.662373    -3.924508    -4.282789    3.180625    2.078002    -5.315603    8.548501    0.000000    0.000000    0.000000    0.324718    1.463705    0.212618    2.584217    0.029480    -10.229845    1.259178    -4.674773    2.466251    0.000000    0.000000    0.000000    
-19.641432    93.298981    34.073841    -1.893383    -1.290418    90.345566    -0.190122    -6.122174    1.021183    4.871945    -0.233978    1.041364    -4.284103    7.846989    -5.643799    11.182611    -0.140739    -3.930350    9.240425    -0.707405    7.724607    -14.623446    4.992060    -12.339271    2.368717    1.790894    1.291365    18.659418    2.065279    1.833281    -18.538836    2.880211    -2.057707    20.507183    3.569206    2.598227    -2.054959    2.549733    -2.455868    -10.739632    3.124978    -6.588635    3.275954    5.378252    -2.679829    -3.929022    -4.238747    3.155603    2.116384    -5.367783    8.574263    0.000000    0.000000    0.000000    0.334442    1.415315    0.186096    2.592815    0.051705    -10.197438    1.225132    -4.720576    2.440150    0.000000    0.000000    0.000000    
-19.639292    93.293488    34.083855    -1.901355    -1.290202    90.346100    -0.226523    -6.152360    1.002678    4.905431    -0.182117    1.022678    -4.151651    7.904879    -5.645156    10.934387    -0.248051    -3.970170    9.210253    -0.659686    7.731002    -14.671277    5.004570    -12.274289    2.317259    1.853959    1.285158    18.653267    2.135570    1.873604    -18.523611    2.932177    -2.086994    20.547634    3.572472    2.575882    -2.080318    2.530764    -2.492406    -10.364987    3.074704    -6.496142    3.281304    5.364520    -2.701932    -3.929848    -4.238292    3.146455    2.117017    -5.375093    8.608012    0.000000    0.000000    0.000000    0.337240    1.406663    0.170382    2.600366    0.053759    -10.226772    1.236268    -4.748085    2.482024    0.000000    0.000000    0.000000    
